<svg id="Layer_1" data-name="Layer 1" xmlns="http://www.w3.org/2000/svg" viewBox="0 0 70 70"><defs><style>.cls-1{fill:#ef3f3f;}.cls-2,.cls-3{fill:#fff;}.cls-3{fill-rule:evenodd;}</style></defs><title>logo</title><rect class="cls-1" x="-1.65" y="-1.16" width="73.38" height="72.72"/><path class="cls-2" d="M27.9,27.86a1,1,0,0,1-.7.16H26a1.1,1.1,0,0,1-.71-0.16,1,1,0,0,1-.18-0.7V24.85h-2.7v2.73q0,2.61,2.76,2.61H28q2.79,0,2.79-2.61V22.23q0-2.61-2.73-2.61H25.9a1.1,1.1,0,0,1-.71-0.16,1,1,0,0,1-.18-0.7V14.63a1,1,0,0,1,.18-0.7,1.1,1.1,0,0,1,.71-0.16h1.25a1.1,1.1,0,0,1,.71.16,1,1,0,0,1,.18.7v2.32h2.7V14.21q0-2.61-2.76-2.61H25.07q-2.76,0-2.76,2.61v4.9q0,2.64,2.7,2.64h2.2a1,1,0,0,1,.7.16,1,1,0,0,1,.16.7v4.55A1,1,0,0,1,27.9,27.86Z"/><path class="cls-2" d="M41.91,13.91l1.69,9.8H40.37Zm5.5,16.28L43.87,11.6H40l-3.3,18.6h2.67L40,25.89H44l0.74,4.31h2.7Z"/><path class="cls-2" d="M31,36.49q0-2.61-2.76-2.61H25q-2.76,0-2.76,2.61V49.86q0,2.64,2.76,2.64h3.18Q31,52.5,31,49.86v-7H26.79V45h1.49v4.55a1,1,0,0,1-.18.7,1.1,1.1,0,0,1-.71.16H25.87a1.1,1.1,0,0,1-.71-0.16,1,1,0,0,1-.18-0.7V36.85a1,1,0,0,1,.18-0.7A1.1,1.1,0,0,1,25.87,36h1.52a1.1,1.1,0,0,1,.71.16,1,1,0,0,1,.18.7v2.47H31V36.49Z"/><path class="cls-2" d="M40.87,43.95h4.28V41.78H40.87V36H46V33.88H38.17v18.6h8.08V50.31H40.87V43.95Z"/><path class="cls-3" d="M22.44,55.46H46.2v2.38H22.44V55.46Z"/></svg>